<svg xmlns="http://www.w3.org/2000/svg" viewBox="0 0 270 270"><defs><style>.cls-1,.cls-2{fill:none;}.cls-1{stroke:#575756;stroke-width:20px;}.cls-1,.cls-2,.cls-3{stroke-miterlimit:10;}.cls-2,.cls-3{stroke:#616160;stroke-linecap:round;stroke-width:5px;}.cls-3{fill:#858584;}</style></defs><g id="Layer_2" data-name="Layer 2"><g id="Layer_1-2" data-name="Layer 1"><circle class="cls-1" cx="135" cy="135" r="125"/><polyline class="cls-2" points="56.73 93.26 81.14 76.02 103.97 93.17 132.18 76.99 157.77 93.52 180.73 78.19"/><polyline class="cls-2" points="56.73 191.26 81.14 174.02 103.97 191.17 132.18 174.99 157.77 191.51 185.13 175.69 210.6 190.95"/><line class="cls-2" x1="185.13" y1="126.69" x2="210.6" y2="141.95"/><polyline class="cls-2" points="56.73 142.26 81.14 125.02 103.97 142.17 132.18 125.99"/><polyline class="cls-3" points="118.78 158.87 131.09 158.91 131.26 149.88 145.33 147.76 212.09 89.52 212.68 84.56 212.06 83.79 207.21 83.69 135.29 134.51 130.59 149.81 123.37 147.26 119.4 159.65"/></g></g></svg>